<svg width="110" height="28" viewBox="0 0 110 28" fill="none" xmlns="http://www.w3.org/2000/svg">
<path d="M17.6823 13.1487C17.6945 12.201 17.9462 11.2718 18.4141 10.4476C18.8819 9.62332 19.5506 8.93078 20.358 8.43441C19.8451 7.70187 19.1684 7.09902 18.3818 6.67374C17.5951 6.24846 16.7201 6.01246 15.8263 5.98449C13.9197 5.78435 12.0713 7.12548 11.0997 7.12548C10.1093 7.12548 8.61339 6.00436 7.00245 6.03755C5.96052 6.07123 4.94508 6.37423 4.05506 6.91703C3.16505 7.45983 2.43081 8.22391 1.92388 9.13483C-0.272067 12.9367 1.36594 18.5241 3.46941 21.5973C4.52175 23.1021 5.75173 24.7831 7.36113 24.7234C8.93603 24.6581 9.52432 23.7191 11.4253 23.7191C13.3087 23.7191 13.8605 24.7234 15.5026 24.6855C17.1926 24.6581 18.2574 23.1741 19.2728 21.655C20.029 20.5827 20.6108 19.3976 20.9968 18.1436C20.015 17.7283 19.1772 17.0332 18.5878 16.145C17.9984 15.2568 17.6834 14.2147 17.6823 13.1487ZM14.5807 3.96345C15.5022 2.85729 15.9561 1.43548 15.8462 0C14.4385 0.147886 13.1381 0.820721 12.2043 1.88444C11.7477 2.40408 11.398 3.00862 11.1751 3.6635C10.9523 4.31837 10.8607 5.01075 10.9056 5.70104C11.6098 5.7083 12.3064 5.55568 12.943 5.25468C13.5796 4.95368 14.1396 4.51215 14.5808 3.96335L14.5807 3.96345ZM36.577 21.065H31.4088L30.1677 24.7298H27.9785L32.8739 11.171H35.1482L40.0435 24.7298H37.8172L36.577 21.065ZM31.944 19.3739H36.0407L34.0212 13.4263H33.9646L31.944 19.3739ZM50.6155 19.7877C50.6155 22.8595 48.9713 24.8332 46.4901 24.8332C45.8616 24.866 45.2365 24.7213 44.6865 24.4154C44.1364 24.1095 43.6836 23.6549 43.3799 23.1037H43.3329V28H41.3037V14.8444H43.2678V16.4886H43.3052C43.6229 15.94 44.0833 15.4878 44.6376 15.18C45.1918 14.8723 45.8192 14.7206 46.4528 14.741C48.9617 14.741 50.6155 16.7242 50.6155 19.7876V19.7877ZM48.5298 19.7877C48.5298 17.7863 47.4956 16.4705 45.9176 16.4705C44.3671 16.4705 43.3244 17.8139 43.3244 19.7876C43.3244 21.7795 44.3671 23.1134 45.9176 23.1134C47.4956 23.1134 48.5298 21.8072 48.5298 19.7876V19.7877ZM61.4962 19.7877C61.4962 22.8595 59.8516 24.8332 57.3703 24.8332C56.7418 24.866 56.1167 24.7213 55.5666 24.4154C55.0166 24.1095 54.5638 23.6549 54.26 23.1037H54.2131V28H52.184V14.8444H54.148V16.4886H54.1854C54.503 15.94 54.9635 15.4878 55.5178 15.18C56.072 14.8723 56.6993 14.7206 57.333 14.741C59.842 14.741 61.4962 16.7242 61.4962 19.7876V19.7877ZM59.4101 19.7877C59.4101 17.7863 58.3758 16.4705 56.7977 16.4705C55.2473 16.4705 54.2046 17.8139 54.2046 19.7876C54.2046 21.7795 55.2473 23.1134 56.7977 23.1134C58.3758 23.1134 59.4101 21.8072 59.4101 19.7876V19.7877ZM68.6861 20.952C68.8365 22.2966 70.1427 23.1794 71.9275 23.1794C73.6378 23.1794 74.8684 22.2966 74.8684 21.0842C74.8684 20.0317 74.1262 19.4016 72.3691 18.9698L70.6119 18.5465C68.1221 17.9451 66.9662 16.7807 66.9662 14.8912C66.9662 12.5518 69.005 10.945 71.8988 10.945C74.765 10.945 76.729 12.5518 76.7952 14.8912H74.7468C74.6242 13.5382 73.5056 12.7214 71.8711 12.7214C70.2365 12.7214 69.118 13.5478 69.118 14.7505C69.118 15.7091 69.8324 16.2732 71.58 16.7049L73.0738 17.0718C75.8557 17.7296 77.0105 18.8472 77.0105 20.8303C77.0105 23.367 74.991 24.9558 71.7772 24.9558C68.7702 24.9558 66.7401 23.4043 66.609 20.9519L68.6861 20.952ZM81.3918 12.5051V14.8444H83.2717V16.4513H81.3918V21.901C81.3918 22.7476 81.7682 23.1421 82.5946 23.1421C82.8177 23.1382 83.0405 23.1225 83.262 23.0951V24.6925C82.8905 24.7619 82.5129 24.7933 82.135 24.7862C80.1336 24.7862 79.3531 24.0346 79.3531 22.1174V16.4513H77.9157V14.8444H79.3531V12.5051H81.3918ZM84.3593 19.7877C84.3593 16.6773 86.1911 14.7229 89.0477 14.7229C91.9138 14.7229 93.7371 16.6773 93.7371 19.7877C93.7371 22.9065 91.9233 24.8524 89.0476 24.8524C86.1729 24.8524 84.3593 22.9065 84.3593 19.7877ZM91.6696 19.7877C91.6696 17.6541 90.6918 16.3947 89.0476 16.3947C87.4035 16.3947 86.4257 17.6636 86.4257 19.7877C86.4257 21.9298 87.4035 23.1794 89.0476 23.1794C90.6918 23.1794 91.6696 21.9298 91.6696 19.7877ZM95.41 14.8444H97.3453V16.5269H97.3923C97.5232 16.0014 97.8311 15.537 98.2641 15.2118C98.6971 14.8866 99.2289 14.7203 99.7701 14.741C100.004 14.7402 100.237 14.7655 100.465 14.8167V16.7146C100.17 16.6244 99.8621 16.583 99.5536 16.592C99.2588 16.5801 98.9649 16.632 98.6921 16.7444C98.4193 16.8567 98.1741 17.0267 97.9732 17.2428C97.7723 17.4589 97.6206 17.7159 97.5284 17.9961C97.4362 18.2764 97.4058 18.5732 97.4392 18.8664V24.7298H95.41V14.8444ZM109.821 21.8263C109.548 23.6209 107.8 24.8524 105.564 24.8524C102.688 24.8524 100.903 22.9257 100.903 19.8345C100.903 16.7339 102.698 14.7229 105.479 14.7229C108.214 14.7229 109.934 16.6016 109.934 19.5989V20.2941H102.952V20.4167C102.92 20.7805 102.965 21.147 103.085 21.4919C103.206 21.8368 103.398 22.1521 103.65 22.4169C103.901 22.6818 104.206 22.89 104.544 23.028C104.882 23.1659 105.246 23.2302 105.611 23.2168C106.091 23.2617 106.572 23.1506 106.983 22.9001C107.394 22.6496 107.714 22.273 107.894 21.8263H109.821ZM102.961 18.876H107.904C107.922 18.5489 107.872 18.2215 107.758 17.9145C107.644 17.6074 107.467 17.3273 107.239 17.0917C107.012 16.8561 106.738 16.6701 106.435 16.5454C106.132 16.4207 105.806 16.36 105.479 16.367C105.148 16.365 104.821 16.4285 104.515 16.5538C104.209 16.6791 103.931 16.8637 103.697 17.0969C103.463 17.3302 103.278 17.6075 103.151 17.9128C103.025 18.2182 102.961 18.5455 102.961 18.876ZM31.6903 0.965314C32.1157 0.93478 32.5426 0.999045 32.9402 1.15347C33.3377 1.3079 33.6961 1.54864 33.9893 1.85833C34.2826 2.16802 34.5034 2.53893 34.636 2.94432C34.7685 3.3497 34.8095 3.77945 34.7558 4.20257C34.7558 6.28388 33.6309 7.48034 31.6903 7.48034H29.337V0.965205L31.6903 0.965314ZM30.3489 6.55892H31.5773C31.8813 6.57707 32.1855 6.52722 32.4677 6.41299C32.75 6.29876 33.0033 6.12302 33.2091 5.89858C33.4149 5.67413 33.568 5.40662 33.6574 5.11552C33.7468 4.82441 33.7701 4.51705 33.7257 4.21578C33.7669 3.91571 33.7412 3.61024 33.6505 3.32127C33.5597 3.0323 33.4062 2.76698 33.2008 2.54431C32.9955 2.32165 32.7435 2.14716 32.4628 2.03334C32.1821 1.91952 31.8797 1.8692 31.5773 1.88597H30.3489V6.55892ZM35.8989 5.01983C35.868 4.69673 35.9049 4.37073 36.0074 4.06275C36.1098 3.75477 36.2755 3.4716 36.4938 3.2314C36.7121 2.99121 36.9782 2.7993 37.2751 2.66797C37.5719 2.53665 37.8929 2.46881 38.2174 2.46881C38.542 2.46881 38.863 2.53665 39.1598 2.66797C39.4567 2.7993 39.7228 2.99121 39.9411 3.2314C40.1594 3.4716 40.3251 3.75477 40.4275 4.06275C40.53 4.37073 40.5669 4.69673 40.536 5.01983C40.5676 5.34331 40.5311 5.66982 40.429 5.97837C40.3269 6.28692 40.1613 6.57068 39.9429 6.81141C39.7245 7.05215 39.4582 7.24452 39.161 7.37617C38.8639 7.50782 38.5425 7.57583 38.2174 7.57583C37.8924 7.57583 37.571 7.50782 37.2738 7.37617C36.9767 7.24452 36.7103 7.05215 36.492 6.81141C36.2736 6.57068 36.108 6.28692 36.0059 5.97837C35.9037 5.66982 35.8673 5.34331 35.8989 5.01983ZM39.538 5.01983C39.538 3.95406 39.0593 3.33083 38.2191 3.33083C37.3756 3.33083 36.9012 3.95406 36.9012 5.01983C36.9012 6.09411 37.3757 6.71254 38.2191 6.71254C39.0593 6.71254 39.538 6.08985 39.538 5.01983ZM46.7002 7.48023H45.6935L44.6774 3.85918H44.6007L43.5889 7.48023H42.5919L41.2367 2.56358H42.2207L43.1016 6.31521H43.1741L44.1849 2.56358H45.1157L46.1266 6.31521H46.2033L47.0797 2.56358H48.0501L46.7002 7.48023ZM49.1899 2.56369H50.124V3.3447H50.1965C50.3195 3.06416 50.5269 2.82898 50.7899 2.67195C51.0529 2.51493 51.3584 2.44387 51.6637 2.4687C51.9029 2.45072 52.1431 2.48679 52.3665 2.57425C52.5899 2.6617 52.7908 2.7983 52.9542 2.97392C53.1176 3.14953 53.2395 3.35967 53.3106 3.58876C53.3818 3.81785 53.4006 4.06003 53.3655 4.29734V7.48012H52.3951V4.54105C52.3951 3.75098 52.0518 3.35802 51.3342 3.35802C51.1718 3.35046 51.0096 3.37812 50.8589 3.43908C50.7082 3.50004 50.5724 3.59287 50.4609 3.71121C50.3494 3.82955 50.2648 3.97059 50.2129 4.12468C50.161 4.27877 50.143 4.44226 50.1602 4.60394V7.48023H49.1899V2.56369ZM54.9116 0.644307H55.8818V7.48023H54.9116V0.644307ZM57.2307 5.01983C57.1997 4.69668 57.2367 4.37064 57.3392 4.06262C57.4416 3.7546 57.6074 3.47139 57.8257 3.23116C58.044 2.99094 58.3102 2.799 58.607 2.66765C58.9039 2.53631 59.2249 2.46846 59.5496 2.46846C59.8742 2.46846 60.1952 2.53631 60.4921 2.66765C60.7889 2.799 61.0551 2.99094 61.2734 3.23116C61.4918 3.47139 61.6575 3.7546 61.7599 4.06262C61.8624 4.37064 61.8994 4.69668 61.8685 5.01983C61.8999 5.34326 61.8633 5.66969 61.7611 5.97814C61.6588 6.28659 61.4932 6.57024 61.2748 6.81087C61.0564 7.0515 60.7901 7.24379 60.493 7.37537C60.1959 7.50696 59.8745 7.57494 59.5496 7.57494C59.2246 7.57494 58.9032 7.50696 58.6061 7.37537C58.309 7.24379 58.0427 7.0515 57.8243 6.81087C57.6059 6.57024 57.4403 6.28659 57.3381 5.97814C57.2358 5.66969 57.1992 5.34326 57.2307 5.01983ZM60.8698 5.01983C60.8698 3.95406 60.3911 3.33083 59.5509 3.33083C58.7074 3.33083 58.233 3.95406 58.233 5.01983C58.233 6.09411 58.7075 6.71254 59.5509 6.71254C60.3911 6.71254 60.8698 6.08985 60.8698 5.01983ZM62.8899 6.08985C62.8899 5.20479 63.5488 4.69456 64.7185 4.62206L66.0503 4.54531V4.1209C66.0503 3.60161 65.707 3.30845 65.0438 3.30845C64.5021 3.30845 64.1267 3.50727 64.0191 3.85492H63.0797C63.1788 3.01037 63.9732 2.46881 65.0886 2.46881C66.3212 2.46881 67.0164 3.08243 67.0164 4.1209V7.48023H66.0823V6.7893H66.0055C65.8497 7.03714 65.6309 7.23918 65.3714 7.3748C65.112 7.51042 64.8212 7.57476 64.5288 7.56124C64.3224 7.58271 64.1138 7.56069 63.9164 7.4966C63.719 7.43251 63.5373 7.32777 63.3829 7.18914C63.2285 7.05052 63.1048 6.88107 63.0199 6.69173C62.935 6.50239 62.8907 6.29736 62.8899 6.08985ZM66.0503 5.6697V5.25862L64.8497 5.33538C64.1726 5.38069 63.8655 5.61107 63.8655 6.04443C63.8655 6.48696 64.2494 6.74453 64.7772 6.74453C64.9318 6.76019 65.0881 6.74458 65.2366 6.69862C65.3851 6.65266 65.5228 6.5773 65.6416 6.47702C65.7604 6.37674 65.8578 6.25359 65.928 6.11489C65.9982 5.9762 66.0398 5.8248 66.0503 5.6697ZM68.2916 5.01983C68.2916 3.46622 69.0902 2.48213 70.3325 2.48213C70.6397 2.46796 70.9447 2.54155 71.2117 2.6943C71.4787 2.84704 71.6967 3.07263 71.8402 3.3447H71.9127V0.644198H72.8829V7.48012H71.9532V6.70326H71.8764C71.7218 6.97349 71.4963 7.19628 71.2241 7.34749C70.952 7.49871 70.6437 7.57259 70.3326 7.56114C69.0817 7.56114 68.2916 6.57693 68.2916 5.01972V5.01983ZM69.294 5.01983C69.294 6.06256 69.7855 6.69016 70.6075 6.69016C71.4253 6.69016 71.9308 6.0536 71.9308 5.02398C71.9308 3.99938 71.4201 3.35376 70.6075 3.35376C69.7908 3.35376 69.294 3.98551 69.294 5.01983ZM76.8975 5.01983C76.8666 4.69673 76.9035 4.37073 77.006 4.06275C77.1084 3.75477 77.2741 3.4716 77.4924 3.2314C77.7107 2.99121 77.9768 2.7993 78.2737 2.66797C78.5705 2.53665 78.8915 2.46881 79.216 2.46881C79.5406 2.46881 79.8616 2.53665 80.1584 2.66797C80.4553 2.7993 80.7214 2.99121 80.9397 3.2314C81.158 3.4716 81.3237 3.75477 81.4261 4.06275C81.5286 4.37073 81.5655 4.69673 81.5346 5.01983C81.5662 5.34331 81.5297 5.66982 81.4276 5.97837C81.3254 6.28692 81.1599 6.57068 80.9415 6.81141C80.7231 7.05215 80.4568 7.24452 80.1596 7.37617C79.8625 7.50782 79.5411 7.57583 79.216 7.57583C78.891 7.57583 78.5696 7.50782 78.2724 7.37617C77.9753 7.24452 77.709 7.05215 77.4906 6.81141C77.2722 6.57068 77.1066 6.28692 77.0045 5.97837C76.9023 5.66982 76.8659 5.34331 76.8975 5.01983ZM80.5367 5.01983C80.5367 3.95406 80.0579 3.33083 79.2177 3.33083C78.3742 3.33083 77.8998 3.95406 77.8998 5.01983C77.8998 6.09411 78.3743 6.71254 79.2177 6.71254C80.0579 6.71254 80.5367 6.08985 80.5367 5.01983ZM82.8365 2.56369H83.7706V3.3447H83.8431C83.9661 3.06416 84.1736 2.82898 84.4366 2.67195C84.6996 2.51493 85.0051 2.44387 85.3104 2.4687C85.5496 2.45072 85.7898 2.48679 86.0132 2.57425C86.2366 2.6617 86.4374 2.7983 86.6009 2.97392C86.7643 3.14953 86.8861 3.35967 86.9573 3.58876C87.0285 3.81785 87.0472 4.06003 87.0121 4.29734V7.48012H86.0418V4.54105C86.0418 3.75098 85.6984 3.35802 84.9809 3.35802C84.8184 3.35046 84.6563 3.37812 84.5056 3.43908C84.3548 3.50004 84.2191 3.59287 84.1076 3.71121C83.9961 3.82955 83.9115 3.97059 83.8596 4.12468C83.8077 4.27877 83.7897 4.44226 83.8069 4.60394V7.48023H82.8367L82.8365 2.56369ZM92.4949 1.3396V2.58607H93.5601V3.40333H92.4949V5.93142C92.4949 6.44645 92.7071 6.67203 93.1901 6.67203C93.3137 6.6716 93.4373 6.66409 93.56 6.64954V7.45784C93.3858 7.48901 93.2092 7.5056 93.0322 7.50742C91.9533 7.50742 91.5235 7.12778 91.5235 6.17993V3.40333H90.743V2.58596H91.5235V1.33971L92.4949 1.3396ZM94.8854 0.644307H95.8473V3.35376H95.924C96.053 3.0706 96.2661 2.8341 96.5344 2.67648C96.8027 2.51886 97.113 2.44779 97.4231 2.47296C97.6611 2.46 97.8991 2.49973 98.1199 2.58932C98.3408 2.6789 98.5392 2.81613 98.7009 2.9912C98.8626 3.16628 98.9837 3.3749 99.0555 3.60216C99.1274 3.82943 99.1481 4.06975 99.1164 4.30597V7.48023H98.1451V4.54531C98.1451 3.75993 97.7793 3.36228 97.0937 3.36228C96.927 3.34861 96.7592 3.37154 96.6022 3.42947C96.4453 3.4874 96.3028 3.57893 96.1849 3.69765C96.067 3.81638 95.9765 3.95943 95.9196 4.1168C95.8628 4.27418 95.841 4.44207 95.8558 4.60874V7.48023H94.8854V0.644307ZM104.774 6.15264C104.642 6.602 104.357 6.99071 103.967 7.25075C103.578 7.51079 103.109 7.62561 102.644 7.57511C102.32 7.58367 101.998 7.52163 101.7 7.39331C101.403 7.26499 101.137 7.07345 100.921 6.832C100.705 6.59055 100.544 6.30497 100.449 5.99507C100.354 5.68518 100.328 5.35839 100.372 5.03741C100.329 4.71542 100.356 4.38793 100.45 4.07709C100.545 3.76625 100.705 3.47933 100.92 3.23576C101.135 2.99218 101.4 2.79764 101.696 2.6653C101.993 2.53296 102.315 2.46591 102.639 2.4687C104.007 2.4687 104.833 3.40333 104.833 4.94722V5.28581H101.361V5.34018C101.346 5.5206 101.368 5.70221 101.428 5.87336C101.487 6.04451 101.581 6.20142 101.704 6.33403C101.827 6.46664 101.977 6.57203 102.143 6.64344C102.31 6.71484 102.489 6.75069 102.67 6.74868C102.902 6.77655 103.138 6.73476 103.346 6.62863C103.554 6.52249 103.726 6.3568 103.84 6.15264H104.774ZM101.361 4.56824H103.844C103.856 4.40323 103.834 4.23748 103.778 4.08166C103.723 3.92583 103.635 3.78337 103.521 3.66342C103.407 3.54347 103.269 3.44869 103.117 3.38517C102.964 3.32165 102.799 3.29079 102.634 3.29458C102.466 3.29247 102.3 3.32397 102.144 3.38724C101.989 3.4505 101.848 3.54425 101.729 3.66295C101.61 3.78165 101.517 3.9229 101.453 4.07838C101.39 4.23386 101.359 4.40042 101.361 4.56824Z" fill="white"/>
</svg>
