<svg width="120" height="28" viewBox="0 0 120 28" fill="none" xmlns="http://www.w3.org/2000/svg">
<path d="M30.5217 3.16579C30.5217 1.24306 32.0599 0 33.9737 0C35.2525 0 36.0932 0.572346 36.6208 1.26989L35.6818 1.7707C35.3241 1.31461 34.707 0.956892 33.9737 0.956892C32.677 0.956892 31.7022 1.87801 31.7022 3.16579C31.7111 4.44463 32.677 5.37469 33.9737 5.37469C34.6444 5.37469 35.2346 5.08852 35.5298 4.82023V3.88122H33.5623V2.93327H36.6745V5.21372C36.0306 5.88444 35.1094 6.33158 33.9737 6.33158C32.0599 6.34052 30.5217 5.08852 30.5217 3.16579Z" fill="white"/>
<path d="M38.168 6.25105V0.0983276H42.7378V1.04628H39.3395V2.62917H42.6663V3.58606H39.3395V5.3031H42.7378V6.25105H38.168Z" fill="white"/>
<path d="M45.8408 6.25105V1.04628H43.8555V0.0983276H48.9798V1.04628H46.9944V6.25105H45.8408Z" fill="white"/>
<path d="M53.0845 0.0983276H54.2023V6.25105H53.0845V0.0983276Z" fill="white"/>
<path d="M57.404 6.25105V1.04628H55.4187V0.0983276H60.543V1.04628H58.5577V6.25105H57.404Z" fill="white"/>
<path d="M64.3706 3.17476C64.3706 1.35041 65.7746 0.00897217 67.7779 0.00897217C69.7632 0.00897217 71.1762 1.35041 71.1762 3.17476C71.1762 4.99912 69.7542 6.34055 67.7779 6.34055C65.7746 6.34055 64.3706 4.99912 64.3706 3.17476ZM69.9599 3.12111C69.9599 1.8691 69.1014 0.930092 67.7689 0.930092C66.4275 0.930092 65.5779 1.8691 65.5779 3.12111C65.5779 4.36417 66.4275 5.31212 67.7689 5.31212C69.1014 5.31212 69.9599 4.37311 69.9599 3.12111Z" fill="white"/>
<path d="M77.0517 6.25105L73.6265 1.85114V6.25105H72.4729V0.0983276H73.6534L77.007 4.3641V0.0983276H78.1606V6.25105H77.0517Z" fill="white"/>
<path fill-rule="evenodd" clip-rule="evenodd" d="M0.878479 0.429431C0.563724 0.76772 0.382812 1.28839 0.382812 1.96497V26.0306C0.382812 26.7071 0.563724 27.2278 0.890246 27.5543L0.975554 27.6264L14.46 14.1419V13.8389L0.963787 0.357361L0.878479 0.429431Z" fill="url(#paint0_linear_413_4580)"/>
<path fill-rule="evenodd" clip-rule="evenodd" d="M18.9458 18.6544L14.448 14.1551V13.8404L18.9472 9.34113L19.0443 9.40143L24.3657 12.4254C25.8895 13.2844 25.8895 14.6993 24.3657 15.5701L19.0443 18.5941C19.0428 18.5941 18.9458 18.6544 18.9458 18.6544Z" fill="url(#paint1_linear_413_4580)"/>
<path fill-rule="evenodd" clip-rule="evenodd" d="M19.0431 18.594L14.4482 13.9977L0.878418 27.5675C1.37408 28.0999 2.20804 28.1602 3.14054 27.6396L19.0431 18.594Z" fill="url(#paint2_linear_413_4580)"/>
<path fill-rule="evenodd" clip-rule="evenodd" d="M19.0431 9.40293L3.14054 0.369145C2.20951 -0.163293 1.37408 -0.0912223 0.878418 0.441215L14.4467 13.9978L19.0431 9.40293Z" fill="url(#paint3_linear_413_4580)"/>
<path opacity="0.2" fill-rule="evenodd" clip-rule="evenodd" d="M18.9462 18.4969L3.1525 27.4704C2.27001 27.9778 1.48312 27.9425 0.975689 27.4821L0.890381 27.5674L0.975689 27.6395C1.48312 28.0984 2.27001 28.1352 3.1525 27.6277L19.055 18.594L18.9462 18.4969Z" fill="black"/>
<path opacity="0.12" fill-rule="evenodd" clip-rule="evenodd" d="M24.3644 15.4126L18.9341 18.4969L19.0312 18.594L24.3526 15.57C25.1145 15.1346 25.4895 14.5669 25.4895 13.9977C25.441 14.5184 25.0542 15.014 24.3644 15.4126Z" fill="black"/>
<path opacity="0.25" fill-rule="evenodd" clip-rule="evenodd" d="M3.1406 0.526432L24.3646 12.5842C25.0544 12.9711 25.4412 13.4785 25.5015 13.9992C25.5015 13.4314 25.1265 12.8622 24.3646 12.4269L3.1406 0.369054C1.61683 -0.501672 0.382812 0.223443 0.382812 1.9649V2.12227C0.382812 0.380821 1.61683 -0.332528 3.1406 0.526432Z" fill="white"/>
<path fill-rule="evenodd" clip-rule="evenodd" d="M30.5247 16.1509C30.5247 12.2959 33.7649 9.15717 37.6199 9.15717C39.7511 9.15717 41.2676 9.99406 42.4119 11.0839L41.0646 12.4312C40.2468 11.6634 39.1378 11.0678 37.6184 11.0678C34.8033 11.0678 32.6029 13.3343 32.6029 16.1495C32.6029 18.9646 34.8033 21.2341 37.617 21.2341C39.4423 21.2341 40.4807 20.5016 41.1469 19.8339C41.6926 19.2882 42.05 18.5042 42.1883 17.4291H37.6199V15.5229H44.0503C44.118 15.8641 44.1533 16.273 44.1533 16.7157C44.1533 18.1468 43.7606 19.9221 42.4972 21.1855C41.2676 22.4652 39.6997 23.1476 37.6184 23.1476C33.7619 23.1476 30.5217 20.0118 30.5217 16.1539L30.5247 16.1509ZM49.3512 14.1388C46.8611 14.1388 44.8284 16.0333 44.8284 18.641C44.8284 21.2356 46.8596 23.1432 49.3512 23.1432C51.8428 23.1432 53.871 21.2326 53.871 18.6396C53.871 16.0318 51.8413 14.1374 49.3512 14.1388ZM49.3512 21.3723C47.9877 21.3723 46.8096 20.2472 46.8096 18.6425C46.8096 17.0216 47.9863 15.9127 49.3512 15.9127C50.7146 15.9127 51.8913 17.0202 51.8913 18.6425C51.8913 20.2457 50.7161 21.3723 49.3512 21.3723ZM59.213 14.1388C56.7229 14.1388 54.6932 16.0333 54.6932 18.641C54.6932 21.2356 56.7229 23.1432 59.213 23.1432C61.7031 23.1432 63.7329 21.2326 63.7329 18.6396C63.7329 16.0318 61.7046 14.1374 59.213 14.1388ZM59.213 21.3723C57.8496 21.3723 56.6715 20.2472 56.6715 18.6425C56.6715 17.0216 57.8481 15.9127 59.213 15.9127C60.5765 15.9127 61.7546 17.0202 61.7546 18.6425C61.7546 20.2457 60.5765 21.3723 59.213 21.3723ZM71.3164 14.4124V15.1449H71.2488C70.8061 14.6139 69.953 14.1374 68.8793 14.1374C66.6275 14.1374 64.561 16.1171 64.561 18.6601C64.561 21.1826 66.626 23.1462 68.8793 23.1462C69.953 23.1462 70.8061 22.6696 71.2488 22.1239H71.3164V22.7711C71.3164 24.4934 70.3957 25.4156 68.9116 25.4156C67.6997 25.4156 66.9496 24.5449 66.6422 23.8139L64.9184 24.5302C65.4126 25.723 66.7275 27.1909 68.9102 27.1909C71.2282 27.1909 73.1903 25.8245 73.1903 22.499V14.4109L71.3164 14.4124ZM69.0484 21.3723C67.685 21.3723 66.5392 20.228 66.5392 18.6601C66.5392 17.0746 67.6835 15.9141 69.0484 15.9141C70.3957 15.9141 71.4532 17.0731 71.4532 18.6601C71.4547 20.228 70.3972 21.3723 69.0484 21.3723ZM74.5567 9.63518H76.5364V22.8726H74.5567V9.63518ZM81.9623 21.3723C80.9562 21.3723 80.2384 20.9105 79.781 20.0089L85.8026 17.5158L85.5952 17.004C85.2216 15.9994 84.0773 14.1388 81.7402 14.1388C79.4207 14.1388 77.4924 15.9641 77.4924 18.6425C77.4924 21.165 79.403 23.1447 81.9623 23.1447C84.0273 23.1447 85.2216 21.8842 85.7158 21.1488L84.1802 20.1266C83.6669 20.8781 82.9668 21.3738 81.9623 21.3723ZM81.8078 15.8788C82.5918 15.8788 83.2566 16.2715 83.4787 16.8334L79.4516 18.5057C79.4016 16.7657 80.8003 15.8788 81.8078 15.8788Z" fill="white"/>
<path fill-rule="evenodd" clip-rule="evenodd" d="M94.4245 9.63531H89.6914V22.8727H91.6667V17.8587H94.426C96.616 17.8587 98.7693 16.2731 98.7693 13.7463C98.7693 11.2238 96.6175 9.63679 94.4289 9.63679L94.4245 9.63531ZM94.476 16.0157H91.6667V11.4768H94.476C95.9527 11.4768 96.794 12.702 96.794 13.7463C96.794 14.7729 95.9527 16.0157 94.476 16.0157ZM101.833 22.8727V9.63531H99.8577V22.8727H101.833ZM110.707 22.8492V17.7748C110.707 15.4245 108.95 14.114 106.684 14.114C105.256 14.114 103.775 14.7449 103.161 16.1408L104.914 16.8718C105.289 16.1408 105.987 15.901 106.721 15.901C107.741 15.901 108.78 16.5143 108.796 17.6057V17.7425C108.438 17.538 107.674 17.2306 106.735 17.2306C104.845 17.2306 102.921 18.269 102.921 20.2105C102.921 21.9829 104.472 23.1228 106.209 23.1228C107.538 23.1228 108.269 22.5271 108.728 21.8299H108.796V22.8521H110.705L110.707 22.8492ZM106.448 21.3695C105.801 21.3695 104.898 21.046 104.898 20.2473C104.898 19.2251 106.023 18.8309 106.994 18.8309C107.863 18.8309 108.271 19.0177 108.8 19.2736C108.649 20.462 107.644 21.3548 106.448 21.3695ZM117.653 14.4037L115.388 20.1414H115.32L112.97 14.4037H110.842L114.366 22.4256L112.355 26.8866H114.416L119.848 14.4037H117.653Z" fill="white"/>
<defs>
<linearGradient id="paint0_linear_413_4580" x1="13.2492" y1="1.70629" x2="-8.35063" y2="7.46158" gradientUnits="userSpaceOnUse">
<stop stop-color="#00A0FF"/>
<stop offset="0.007" stop-color="#00A1FF"/>
<stop offset="0.26" stop-color="#00BEFF"/>
<stop offset="0.512" stop-color="#00D2FF"/>
<stop offset="0.76" stop-color="#00DFFF"/>
<stop offset="1" stop-color="#00E3FF"/>
</linearGradient>
<linearGradient id="paint1_linear_413_4580" x1="26.3486" y1="13.9984" x2="0.0121924" y2="13.9984" gradientUnits="userSpaceOnUse">
<stop stop-color="#FFE000"/>
<stop offset="0.409" stop-color="#FFBD00"/>
<stop offset="0.775" stop-color="#FFA500"/>
<stop offset="1" stop-color="#FF9C00"/>
</linearGradient>
<linearGradient id="paint2_linear_413_4580" x1="16.5445" y1="16.4981" x2="-0.795901" y2="45.6832" gradientUnits="userSpaceOnUse">
<stop stop-color="#FF3A44"/>
<stop offset="1" stop-color="#C31162"/>
</linearGradient>
<linearGradient id="paint3_linear_413_4580" x1="-2.53744" y1="-7.57593" x2="5.19866" y2="5.45858" gradientUnits="userSpaceOnUse">
<stop stop-color="#32A071"/>
<stop offset="0.069" stop-color="#2DA771"/>
<stop offset="0.476" stop-color="#15CF74"/>
<stop offset="0.801" stop-color="#06E775"/>
<stop offset="1" stop-color="#00F076"/>
</linearGradient>
</defs>
</svg>
